<svg width="42" height="42" viewBox="0 0 42 42" fill="none" xmlns="http://www.w3.org/2000/svg">
<circle cx="21" cy="21" r="21" transform="rotate(-180 21 21)" fill="white"/>
<path d="M27 19.5C26.1716 19.5 25.5 20.1716 25.5 21C25.5 21.8284 26.1716 22.5 27 22.5L27 19.5ZM29.0607 22.0607C29.6464 21.4749 29.6464 20.5251 29.0607 19.9393L19.5147 10.3934C18.9289 9.80761 17.9792 9.80761 17.3934 10.3934C16.8076 10.9792 16.8076 11.9289 17.3934 12.5147L25.8787 21L17.3934 29.4853C16.8076 30.0711 16.8076 31.0208 17.3934 31.6066C17.9792 32.1924 18.9289 32.1924 19.5147 31.6066L29.0607 22.0607ZM27 22.5L28 22.5L28 19.5L27 19.5L27 22.5Z" fill="#7D99E3"/>
</svg>
