<svg width="42" height="42" viewBox="0 0 42 42" fill="none" xmlns="http://www.w3.org/2000/svg">
<circle cx="21" cy="21" r="21" fill="white"/>
<path d="M15 22.5C15.8284 22.5 16.5 21.8284 16.5 21C16.5 20.1716 15.8284 19.5 15 19.5V22.5ZM12.9393 19.9393C12.3536 20.5251 12.3536 21.4749 12.9393 22.0607L22.4853 31.6066C23.0711 32.1924 24.0208 32.1924 24.6066 31.6066C25.1924 31.0208 25.1924 30.0711 24.6066 29.4853L16.1213 21L24.6066 12.5147C25.1924 11.9289 25.1924 10.9792 24.6066 10.3934C24.0208 9.80761 23.0711 9.80761 22.4853 10.3934L12.9393 19.9393ZM15 19.5H14V22.5H15V19.5Z" fill="#7C99E3"/>
</svg>
