<svg width="54" height="54" viewBox="0 0 54 54" fill="none" xmlns="http://www.w3.org/2000/svg">
<path d="M47.3994 24.0515C47.4096 23.8637 47.4146 23.6758 47.4146 23.4878C47.4146 17.678 42.688 12.9513 36.8781 12.9513C36.4446 12.9513 36.0131 12.9778 35.5857 13.0302C34.6231 10.9607 33.1643 9.16793 31.3012 7.78038C28.9016 5.99342 26.048 5.04895 23.0488 5.04895C15.4233 5.04895 9.21955 11.2527 9.21955 18.8782C9.21955 19.1943 9.23031 19.5103 9.25182 19.8253C7.0104 20.3258 4.95925 21.47 3.3307 23.1539C1.18273 25.3749 0 28.3 0 31.3904C0 37.9265 5.31752 43.244 11.8536 43.244H12.7356C13.2649 42.1873 13.9462 41.1795 14.5302 40.3676C15.7311 38.6977 16.9186 37.3706 16.9687 37.3149L18.439 35.6763L19.9093 37.3149C19.9592 37.3706 21.1469 38.6978 22.3478 40.3676C22.9318 41.1796 23.6131 42.1872 24.1424 43.244H27.4412C27.3688 42.8154 27.3292 42.3758 27.3292 41.9269C27.3292 41.2634 27.3292 39.2444 30.6643 34.6069C32.1908 32.4843 33.6978 30.8 33.7613 30.7294L35.2316 29.0909L36.702 30.7294C36.7654 30.8002 38.2724 32.4844 39.799 34.6069C43.1341 39.2444 43.1341 41.2633 43.1341 41.9269C43.1341 42.3758 43.0944 42.8154 43.0222 43.244H44.1219C49.5686 43.244 54 38.8128 54 33.3659C54 29.1316 51.2713 25.4215 47.3994 24.0515Z" fill="#2070DF"/>
<path d="M35.2376 35.1172C34.8106 35.652 34.3297 36.2761 33.8526 36.941C31.4044 40.3515 31.2805 41.6925 31.2805 41.9268C31.2805 44.1054 33.053 45.878 35.2317 45.878C37.4104 45.878 39.1829 44.1056 39.1829 41.9269C39.1829 40.7044 37.3344 37.7478 35.2376 35.1172Z" fill="#2070DF"/>
<path d="M18.4389 41.7227C16.9297 43.6753 15.8047 45.59 15.8047 46.3173C15.8047 47.7698 16.9864 48.9515 18.4389 48.9515C19.8914 48.9515 21.0731 47.7698 21.0731 46.3173C21.0731 45.5901 19.948 43.6755 18.4389 41.7227Z" fill="#2070DF"/>
</svg>
