<svg id="Layer_1" data-name="Layer 1" xmlns="http://www.w3.org/2000/svg" xmlns:xlink="http://www.w3.org/1999/xlink" viewBox="0 0 30 30"><defs><style>.cls-1{fill:none;}.cls-2{clip-path:url(#clip-path);}.cls-3{fill:#0c192b;}.cls-4{fill:#0f2033;}.cls-5{clip-path:url(#clip-path-2);}.cls-6{fill:url(#linear-gradient);}.cls-7{fill:url(#linear-gradient-2);}.cls-8{fill:url(#linear-gradient-3);}</style><clipPath id="clip-path"><rect class="cls-1" width="30" height="30"/></clipPath><clipPath id="clip-path-2"><rect class="cls-1" x="5.56" y="7.71" width="19.6" height="15.36"/></clipPath><linearGradient id="linear-gradient" x1="23.35" y1="26.14" x2="12.52" y2="5.4" gradientTransform="matrix(1, 0, 0, -1, 0, 32)" gradientUnits="userSpaceOnUse"><stop offset="0" stop-color="#00ffa3"/><stop offset="1" stop-color="#dc1fff"/></linearGradient><linearGradient id="linear-gradient-2" x1="18.61" y1="28.61" x2="7.79" y2="7.87" xlink:href="#linear-gradient"/><linearGradient id="linear-gradient-3" x1="20.97" y1="27.38" x2="10.14" y2="6.64" xlink:href="#linear-gradient"/></defs><g class="cls-2"><g id="tron"><g id="Layer_51" data-name="Layer 51"><g id="Group_14" data-name="Group 14"><rect id="Rectangle_6" data-name="Rectangle 6" class="cls-3" width="30" height="30" rx="7"/><path id="Intersection_1" data-name="Intersection 1" class="cls-4" d="M0,7A7,7,0,0,1,7,0h6.47a16.39,16.39,0,0,1,.81,5.1A16.32,16.32,0,0,1,0,21.29Z"/></g><g class="cls-5"><path class="cls-6" d="M8.75,19.43a.67.67,0,0,1,.45-.18H24.84a.32.32,0,0,1,.23.54L22,22.88a.64.64,0,0,1-.45.19H5.88a.32.32,0,0,1-.22-.55Z"/><path class="cls-7" d="M8.75,7.9a.64.64,0,0,1,.45-.19H24.84a.32.32,0,0,1,.23.55L22,11.35a.63.63,0,0,1-.45.18H5.88A.32.32,0,0,1,5.66,11Z"/><path class="cls-8" d="M22,13.63a.64.64,0,0,0-.45-.19H5.88a.32.32,0,0,0-.22.55l3.09,3.09a.64.64,0,0,0,.45.19H24.84a.32.32,0,0,0,.23-.55Z"/></g></g></g></g></svg>